<svg width="18" height="12" viewBox="0 0 24 16" fill="none" xmlns="http://www.w3.org/2000/svg">
<path d="M12.9365 14.667L23.6166 3.98673C23.8638 3.73971 24 3.40996 24 3.05835C24 2.70674 23.8638 2.37699 23.6166 2.12997L22.8303 1.34344C22.3179 0.831635 21.4851 0.831635 20.9735 1.34344L12.005 10.3119L3.02651 1.33348C2.77929 1.08646 2.44974 0.950073 2.09832 0.950073C1.74652 0.950073 1.41696 1.08646 1.16955 1.33348L0.383411 2.12002C0.136194 2.36723 0 2.69679 0 3.0484C0 3.4 0.136194 3.72976 0.383411 3.97678L11.0733 14.667C11.3213 14.9146 11.6524 15.0506 12.0044 15.0499C12.3578 15.0506 12.6887 14.9146 12.9365 14.667Z" fill="#57606F"/>
</svg>
