<svg width="30" height="30" viewBox="0 0 45 45" fill="none" xmlns="http://www.w3.org/2000/svg">
<g clip-path="url(#clip0)">
<path d="M23.6128 21.3882C23.2691 21.0446 22.7128 21.0446 22.3691 21.3882C22.0264 21.731 22.0264 22.2874 22.3691 22.631C22.7128 22.9738 23.2691 22.9738 23.6128 22.631C23.9556 22.2874 23.9556 21.731 23.6128 21.3882Z" fill="white"/>
<path d="M34.7987 10.2015C33.0813 8.48416 30.3011 8.48407 28.5837 10.2015C26.8708 11.9144 26.8707 14.7022 28.5839 16.4165C30.2975 18.129 33.0853 18.1297 34.7987 16.4164C36.5159 14.6992 36.5162 11.9189 34.7987 10.2015ZM33.5557 15.1733C32.528 16.2011 30.8551 16.2011 29.8269 15.1735C28.799 14.145 28.7989 12.4721 29.8267 11.4444C30.8571 10.4141 32.5252 10.4139 33.5557 11.4444C34.5861 12.4747 34.5862 14.1429 33.5557 15.1733Z" fill="white"/>
<path d="M44.7424 0.257318C44.5697 0.0847887 44.3342 -0.00872672 44.0893 0.000501776C43.8906 0.0076209 39.159 0.197816 33.5345 2.18581C29.0275 3.77715 25.2708 6.05554 22.3687 8.95768C21.7184 9.60798 21.0856 10.2976 20.4801 11.014C17.6107 9.32489 15.3113 9.85452 13.8576 10.6324C10.5107 12.4236 8.43903 17.2871 8.43903 20.7659C8.43929 21.1213 8.65348 21.4418 8.98184 21.5778C9.09056 21.6229 9.20482 21.6448 9.31802 21.6448C9.5468 21.6448 9.77153 21.5554 9.93967 21.3873C11.7048 19.6222 13.8819 19.7326 14.5931 19.8261L14.9009 20.1339C14.2952 21.5753 13.8072 23.0086 13.4493 24.4027C13.3201 24.9072 13.3637 25.441 13.5557 25.9293C12.7095 26.3193 11.8931 26.8919 11.1823 27.6028C8.91988 29.8652 8.46047 35.379 8.44201 35.6126C8.4218 35.8689 8.51479 36.1214 8.69663 36.3032C8.86213 36.4686 9.08599 36.5606 9.31802 36.5606C9.34105 36.5606 9.36416 36.5598 9.38728 36.5579C9.62089 36.5396 15.1348 36.0802 17.3972 33.8178C18.1078 33.1072 18.6803 32.2908 19.0703 31.4448C19.5872 31.6481 20.1193 31.6731 20.5978 31.5505C21.9912 31.1927 23.4243 30.7049 24.8659 30.0991L25.1737 30.4069C25.2671 31.1182 25.3775 33.2953 23.6125 35.0603C23.3612 35.3116 23.286 35.6897 23.4221 36.018C23.558 36.3465 23.8785 36.5606 24.234 36.5606C27.7127 36.5606 32.5761 34.4889 34.3673 31.1419C35.1452 29.6885 35.6749 27.3891 33.9858 24.5196C34.7018 23.9144 35.3915 23.2815 36.0421 22.631C38.9442 19.7288 41.2225 15.9721 42.8139 11.4655C44.8019 5.84065 44.9921 1.10898 44.9992 0.910344C45.008 0.666448 44.9149 0.429935 44.7424 0.257318ZM10.4041 18.8754C10.9501 16.2332 12.5359 13.3337 14.6874 12.1822C16.1252 11.4128 17.6968 11.4882 19.3678 12.4029C17.9442 14.2751 16.7066 16.2922 15.675 18.4223C15.662 18.4142 15.5037 18.2153 15.2098 18.149C15.089 18.1217 12.7635 17.6215 10.4041 18.8754ZM16.1542 32.5747C14.9457 33.7832 12.1108 34.4206 10.319 34.6808C10.5793 32.8889 11.2168 30.0541 12.4252 28.8457C13.102 28.169 13.8867 27.6559 14.6754 27.3669L17.6331 30.3246C17.3441 31.1133 16.8311 31.898 16.1542 32.5747ZM20.1612 29.8477C19.9068 29.9129 19.6122 29.8173 19.3932 29.5986C18.2561 28.4615 17.8113 28.0167 17.6717 27.8772C17.4158 27.6213 16.7882 26.9937 15.4019 25.6073C15.1827 25.3877 15.0871 25.0931 15.152 24.8392C15.4335 23.7429 15.8017 22.6181 16.2494 21.4824L23.5175 28.7505C22.3817 29.1983 21.2571 29.5664 20.1612 29.8477ZM32.8177 30.3125C31.6662 32.464 28.7669 34.0499 26.1247 34.5958C26.9671 33.0105 27.1528 30.9924 26.845 29.7687C26.7736 29.4845 26.5881 29.3416 26.5778 29.3248C28.7076 28.2932 30.7246 27.0556 32.597 25.6321C33.5117 27.3032 33.587 28.875 32.8177 30.3125ZM34.7993 21.388C34.0073 22.1799 33.1545 22.945 32.2645 23.6619C30.1251 25.3846 27.7704 26.8437 25.2581 28.0053L16.9946 19.742C18.1562 17.2296 19.6154 14.8748 21.3378 12.7357C22.0554 11.8451 22.8204 10.9922 23.612 10.2006C26.2157 7.59679 29.5762 5.52451 33.6026 4.03283L40.9671 11.3973C39.4756 15.4237 37.4033 18.7841 34.7993 21.388ZM41.5995 9.54365L35.4563 3.40046C38.8032 2.36089 41.715 1.97162 43.1683 1.8317C43.0283 3.28532 42.639 6.19704 41.5995 9.54365Z" fill="white"/>
<path d="M21.1263 36.3031C20.7829 35.9599 20.2264 35.9601 19.8833 36.3033L17.3977 38.7897C17.0546 39.133 17.0547 39.6895 17.3979 40.0326C17.7413 40.3758 18.2978 40.3758 18.6409 40.0325L21.1265 37.546C21.4696 37.2027 21.4695 36.6462 21.1263 36.3031Z" fill="white"/>
<path d="M8.69706 23.8737C8.35393 23.5304 7.7975 23.5304 7.45411 23.8735L4.96769 26.3591C4.62438 26.7022 4.6243 27.2587 4.96742 27.602C5.31046 27.9451 5.86689 27.9455 6.21037 27.6022L8.69679 25.1167C9.04009 24.7735 9.04018 24.217 8.69706 23.8737Z" fill="white"/>
<path d="M14.9118 37.5469C14.5688 37.2036 14.0122 37.2036 13.6689 37.5468L7.71519 43.4996C7.37189 43.8428 7.37189 44.3993 7.7151 44.7426C8.05814 45.0858 8.61475 45.0859 8.95805 44.7426L14.9117 38.7898C15.255 38.4466 15.255 37.8901 14.9118 37.5469Z" fill="white"/>
<path d="M7.88059 37.5469C7.53746 37.2036 6.98085 37.2036 6.63764 37.5468L0.683939 43.4996C0.340639 43.8428 0.340639 44.3993 0.683851 44.7426C1.02689 45.0858 1.5835 45.0859 1.9268 44.7426L7.8805 38.7898C8.2238 38.4466 8.2238 37.8901 7.88059 37.5469Z" fill="white"/>
<path d="M7.45323 30.0883C7.1101 29.7451 6.55349 29.7451 6.21028 30.0884L0.257459 36.0421C-0.085753 36.3854 -0.085753 36.9418 0.257547 37.2851C0.600759 37.6283 1.15728 37.6283 1.50049 37.285L7.45332 31.3313C7.79653 30.988 7.79653 30.4316 7.45323 30.0883Z" fill="white"/>
<path d="M27.3412 17.6589C26.9979 17.3157 26.4416 17.3157 26.0982 17.6589L24.8554 18.9017C24.5122 19.2449 24.5122 19.8014 24.8554 20.1447C25.1987 20.4879 25.7552 20.4879 26.0985 20.1447L27.3412 18.9019C27.6844 18.5587 27.6844 18.0022 27.3412 17.6589Z" fill="white"/>
</g>
<defs>
<clipPath id="clip0">
<rect width="45" height="45" fill="white"/>
</clipPath>
</defs>
</svg>
