<svg width="46" height="45" viewBox="0 0 46 45" fill="none" xmlns="http://www.w3.org/2000/svg">
<g clip-path="url(#clip0)">
<path d="M23.621 21.3884C23.2773 21.0447 22.721 21.0447 22.3773 21.3884C22.0345 21.7311 22.0345 22.2875 22.3773 22.6311C22.721 22.9739 23.2773 22.9739 23.621 22.6311C23.9637 22.2875 23.9637 21.7311 23.621 21.3884Z" fill="white"/>
<path d="M34.807 10.2015C33.0897 8.48416 30.3095 8.48407 28.592 10.2015C26.8791 11.9143 26.8791 14.7022 28.5923 16.4165C30.3058 18.129 33.0937 18.1297 34.807 16.4164C36.5242 14.6992 36.5246 11.9189 34.807 10.2015ZM33.5641 15.1733C32.5364 16.2011 30.8635 16.2011 29.8353 15.1735C28.8074 14.145 28.8073 12.4721 29.8351 11.4444C30.8654 10.4141 32.5336 10.4139 33.5641 11.4444C34.5944 12.4747 34.5946 14.1429 33.5641 15.1733Z" fill="white"/>
<path d="M44.7506 0.257318C44.578 0.0847887 44.3424 -0.00872672 44.0976 0.000501776C43.8988 0.0076209 39.1673 0.197816 33.5427 2.18581C29.0357 3.77716 25.279 6.05554 22.3769 8.95768C21.7266 9.60798 21.0938 10.2976 20.4883 11.014C17.6189 9.32489 15.3195 9.85452 13.8659 10.6324C10.5189 12.4236 8.44727 17.2871 8.44727 20.7659C8.44753 21.1213 8.66172 21.4418 8.99008 21.5778C9.0988 21.6229 9.21306 21.6448 9.32626 21.6448C9.55504 21.6448 9.77977 21.5554 9.94791 21.3873C11.713 19.6222 13.8901 19.7326 14.6014 19.8261L14.9091 20.1339C14.3034 21.5753 13.8154 23.0086 13.4575 24.4027C13.3284 24.9072 13.3719 25.441 13.564 25.9293C12.7178 26.3193 11.9014 26.8919 11.1905 27.6028C8.92811 29.8652 8.46871 35.379 8.45025 35.6126C8.43004 35.869 8.52303 36.1214 8.70487 36.3032C8.87037 36.4686 9.09423 36.5606 9.32626 36.5606C9.34929 36.5606 9.3724 36.5598 9.39552 36.5579C9.62913 36.5396 15.143 36.0802 17.4054 33.8178C18.116 33.1072 18.6885 32.2908 19.0785 31.4448C19.5955 31.6481 20.1276 31.6731 20.606 31.5505C21.9994 31.1927 23.4326 30.705 24.8742 30.0991L25.182 30.4069C25.2754 31.1182 25.3858 33.2953 23.6208 35.0603C23.3695 35.3116 23.2942 35.6897 23.4303 36.018C23.5663 36.3465 23.8867 36.5606 24.2422 36.5606C27.7209 36.5606 32.5844 34.4889 34.3756 31.1419C35.1535 29.6885 35.6831 27.3891 33.994 24.5196C34.7101 23.9144 35.3997 23.2815 36.0503 22.631C38.9525 19.7288 41.2308 15.9721 42.8221 11.4655C44.8102 5.84065 45.0003 1.10898 45.0074 0.910344C45.0162 0.666448 44.9231 0.429935 44.7506 0.257318ZM10.4123 18.8754C10.9583 16.2332 12.5441 13.3337 14.6957 12.1822C16.1335 11.4128 17.705 11.4882 19.376 12.4029C17.9524 14.2751 16.7149 16.2922 15.6833 18.4223C15.6702 18.4142 15.512 18.2153 15.2181 18.149C15.0972 18.1217 12.7717 17.6215 10.4123 18.8754ZM16.1625 32.5747C14.954 33.7832 12.1191 34.4206 10.3272 34.6808C10.5876 32.8889 11.225 30.0541 12.4334 28.8457C13.1102 28.169 13.8949 27.6559 14.6836 27.3669L17.6413 30.3246C17.3523 31.1133 16.8393 31.898 16.1625 32.5747ZM20.1694 29.8478C19.915 29.9129 19.6204 29.8173 19.4014 29.5986C18.2644 28.4615 17.8196 28.0167 17.68 27.8772C17.424 27.6213 16.7964 26.9937 15.4101 25.6073C15.1909 25.3877 15.0953 25.0931 15.1603 24.8392C15.4418 23.7429 15.8099 22.6181 16.2577 21.4824L23.5258 28.7505C22.3899 29.1983 21.2653 29.5664 20.1694 29.8478ZM32.826 30.3125C31.6744 32.464 28.7751 34.0499 26.1329 34.5958C26.9754 33.0105 27.1611 30.9924 26.8533 29.7687C26.7818 29.4845 26.5964 29.3416 26.586 29.3248C28.7159 28.2932 30.7329 27.0556 32.6053 25.6321C33.52 27.3032 33.5953 28.875 32.826 30.3125ZM34.8075 21.388C34.0156 22.1799 33.1628 22.945 32.2728 23.6619C30.1334 25.3846 27.7786 26.8437 25.2663 28.0053L17.0029 19.742C18.1644 17.2296 19.6236 14.8748 21.3461 12.7357C22.0636 11.8451 22.8286 10.9922 23.6202 10.2006C26.224 7.59679 29.5844 5.52451 33.6108 4.03283L40.9753 11.3973C39.4838 15.4237 37.4116 18.7841 34.8075 21.388ZM41.6077 9.54365L35.4645 3.40046C38.8115 2.36089 41.7232 1.97162 43.1766 1.8317C43.0366 3.28532 42.6472 6.19704 41.6077 9.54365Z" fill="white"/>
<path d="M21.1346 36.3031C20.7912 35.9599 20.2346 35.9601 19.8915 36.3033L17.406 38.7897C17.0628 39.133 17.0629 39.6895 17.4061 40.0326C17.7495 40.3758 18.3061 40.3758 18.6492 40.0325L21.1347 37.546C21.4779 37.2027 21.4778 36.6462 21.1346 36.3031Z" fill="white"/>
<path d="M8.70529 23.8738C8.36217 23.5305 7.80573 23.5305 7.46234 23.8737L4.97592 26.3592C4.63262 26.7023 4.63254 27.2588 4.97566 27.6021C5.3187 27.9453 5.87513 27.9456 6.21861 27.6023L8.70503 25.1168C9.04833 24.7737 9.04841 24.2171 8.70529 23.8738Z" fill="white"/>
<path d="M14.9199 37.5468C14.5769 37.2036 14.0203 37.2036 13.677 37.5468L7.72331 43.4996C7.38001 43.8428 7.38001 44.3993 7.72322 44.7425C8.06625 45.0857 8.62286 45.0859 8.96616 44.7426L14.9199 38.7898C15.2632 38.4466 15.2632 37.8901 14.9199 37.5468Z" fill="white"/>
<path d="M7.8887 37.5468C7.54558 37.2036 6.98897 37.2036 6.64576 37.5468L0.692056 43.4996C0.348756 43.8428 0.348756 44.3993 0.691969 44.7425C1.03501 45.0857 1.59162 45.0859 1.93492 44.7426L7.88862 38.7898C8.23192 38.4466 8.23192 37.8901 7.8887 37.5468Z" fill="white"/>
<path d="M7.46403 30.0883C7.1209 29.7451 6.56429 29.7451 6.22108 30.0884L0.268262 36.0421C-0.0749498 36.3854 -0.0749498 36.9418 0.26835 37.2851C0.611562 37.6283 1.16808 37.6283 1.5113 37.285L7.46412 31.3313C7.80733 30.988 7.80733 30.4316 7.46403 30.0883Z" fill="white"/>
<path d="M27.3493 17.6589C27.006 17.3157 26.4496 17.3157 26.1063 17.6589L24.8635 18.9017C24.5203 19.2449 24.5203 19.8014 24.8635 20.1447C25.2068 20.4879 25.7632 20.4879 26.1065 20.1447L27.3493 18.9019C27.6925 18.5587 27.6925 18.0022 27.3493 17.6589Z" fill="white"/>
</g>
<defs>
<clipPath id="clip0">
<rect x="0.00817871" width="45" height="45" rx="20" fill="white"/>
</clipPath>
</defs>
</svg>
