<svg width="79" height="79" viewBox="0 0 79 79" fill="none" xmlns="http://www.w3.org/2000/svg">
<path d="M41.3333 65H36.6667C35.0896 65 33.7583 63.8187 33.5708 62.25L33.0729 58.3417C32.0792 58.0187 31.1208 57.6208 30.2104 57.1562L27.0979 59.575C25.8354 60.5521 24.0583 60.4396 22.9625 59.3125L19.6812 56.0312C18.5625 54.9458 18.45 53.1687 19.4271 51.9083L21.8458 48.7938C21.3792 47.8833 20.9812 46.925 20.6604 45.9312L16.7437 45.4333C15.1812 45.2417 14 43.9104 14 42.3333V37.6667C14 36.0896 15.1812 34.7583 16.75 34.5708L20.6583 34.0729C20.9812 33.0792 21.3792 32.1208 21.8438 31.2104L19.4271 28.0979C18.4479 26.8354 18.5625 25.0562 19.6917 23.9604L22.9729 20.6792C24.0583 19.5604 25.8375 19.45 27.0958 20.425L30.2083 22.8458C31.1187 22.3812 32.0771 21.9833 33.0729 21.6604L33.5708 17.7437C33.7583 16.1812 35.0896 15 36.6667 15H41.3333C42.9104 15 44.2417 16.1812 44.4292 17.75L44.9271 21.6583C45.9229 21.9812 46.8812 22.3792 47.7917 22.8438L50.9042 20.425C52.1688 19.4479 53.9437 19.5604 55.0396 20.6896L58.3208 23.9708C59.4396 25.0563 59.5521 26.8333 58.575 28.0937L56.1562 31.2083C56.6229 32.1187 57.0208 33.0771 57.3417 34.0708L61.2583 34.5687C62.8187 34.7583 64 36.0896 64 37.6667V42.3333C64 43.9104 62.8187 45.2417 61.25 45.4292L57.3417 45.9271C57.0187 46.9208 56.6208 47.8792 56.1562 48.7896L58.575 51.9021C59.5542 53.1646 59.4396 54.9417 58.3104 56.0375L55.0292 59.3187C53.9437 60.4375 52.1646 60.5521 50.9062 59.5729L47.7917 57.1542C46.8812 57.6208 45.9229 58.0187 44.9292 58.3396L44.4312 62.2562C44.2417 63.8187 42.9104 65 41.3333 65ZM30.1042 54.875C30.2771 54.875 30.4542 54.9187 30.6125 55.0062C31.7604 55.6479 33.0042 56.1646 34.3083 56.5396C34.7083 56.6542 35.0021 56.9958 35.0542 57.4083L35.6375 61.9917C35.7 62.5146 36.1521 62.9167 36.6667 62.9167H41.3333C41.8479 62.9167 42.3 62.5146 42.3604 62.0021L42.9458 57.4104C42.9979 56.9979 43.2917 56.6562 43.6917 56.5417C44.9958 56.1667 46.2396 55.65 47.3875 55.0083C47.7521 54.8042 48.2062 54.8396 48.5333 55.0958L52.1792 57.9292C52.5979 58.2542 53.1854 58.2271 53.5438 57.8583L56.8458 54.5562C57.2229 54.1896 57.2521 53.6021 56.9271 53.1812L54.0938 49.5354C53.8375 49.2062 53.8021 48.7542 54.0062 48.3896C54.6479 47.2417 55.1646 45.9979 55.5396 44.6937C55.6542 44.2937 55.9958 44 56.4083 43.9479L60.9917 43.3646C61.5146 43.3 61.9167 42.8479 61.9167 42.3333V37.6667C61.9167 37.1521 61.5146 36.7 61.0021 36.6396L56.4104 36.0542C55.9979 36.0021 55.6562 35.7083 55.5417 35.3083C55.1667 34.0042 54.65 32.7604 54.0083 31.6125C53.8042 31.2479 53.8375 30.7958 54.0958 30.4667L56.9292 26.8208C57.2562 26.4 57.2271 25.8125 56.8604 25.4583L53.5583 22.1562C53.1937 21.7771 52.6042 21.7479 52.1833 22.075L48.5375 24.9083C48.2062 25.1646 47.7542 25.2 47.3896 24.9958C46.2458 24.3542 45.0021 23.8396 43.6937 23.4625C43.2937 23.3479 43 23.0062 42.9479 22.5937L42.3646 18.0104C42.3 17.4854 41.8479 17.0833 41.3333 17.0833H36.6667C36.1521 17.0833 35.7 17.4854 35.6396 17.9979L35.0542 22.5896C35.0021 23.0021 34.7083 23.3437 34.3083 23.4604C33 23.8354 31.7562 24.3521 30.6125 24.9917C30.2479 25.1979 29.7958 25.1604 29.4646 24.9062L25.8187 22.0729C25.3979 21.7458 24.8125 21.775 24.4562 22.1417L21.1542 25.4458C20.7771 25.8125 20.7479 26.4 21.0729 26.8208L23.9062 30.4667C24.1625 30.7958 24.1979 31.2479 23.9937 31.6125C23.35 32.7604 22.8354 34.0042 22.4604 35.3083C22.3458 35.7083 22.0042 36.0021 21.5917 36.0542L17.0083 36.6375C16.4854 36.7 16.0833 37.1521 16.0833 37.6667V42.3333C16.0833 42.8479 16.4854 43.3 16.9979 43.3604L21.5896 43.9458C22.0021 43.9979 22.3438 44.2917 22.4583 44.6917C22.8333 45.9958 23.35 47.2396 23.9917 48.3875C24.1958 48.7521 24.1625 49.2042 23.9042 49.5333L21.0708 53.1792C20.7437 53.6 20.7729 54.1875 21.1396 54.5417L24.4417 57.8438C24.8062 58.2208 25.3917 58.25 25.8167 57.925L29.4625 55.0917C29.6521 54.95 29.8771 54.875 30.1042 54.875Z" fill="white"/>
<path d="M39 50.4167C33.2563 50.4167 28.5833 45.7438 28.5833 40C28.5833 34.2563 33.2563 29.5834 39 29.5834C44.7437 29.5834 49.4167 34.2563 49.4167 40C49.4167 45.7438 44.7437 50.4167 39 50.4167ZM39 31.6667C34.4042 31.6667 30.6667 35.4042 30.6667 40C30.6667 44.5959 34.4042 48.3334 39 48.3334C43.5958 48.3334 47.3333 44.5959 47.3333 40C47.3333 35.4042 43.5958 31.6667 39 31.6667Z" fill="white"/>
<circle cx="39.5" cy="39.5" r="37.5" stroke="white" stroke-width="3"/>
</svg>
