<svg width="20" height="20" viewBox="0 0 20 20" fill="none" xmlns="http://www.w3.org/2000/svg">
<path d="M10 20C15.5228 20 20 15.5228 20 10C20 4.47715 15.5228 0 10 0C4.47715 0 0 4.47715 0 10C0 15.5228 4.47715 20 10 20Z" fill="#FFCA28"/>
<path d="M10.0001 16.25C8.33009 16.25 6.76134 15.5987 5.58009 14.4187C5.33634 14.175 5.33634 13.7787 5.58009 13.535C5.82384 13.2912 6.22009 13.2912 6.46384 13.535C8.35259 15.425 11.6451 15.425 13.5351 13.535C13.7788 13.2912 14.1751 13.2912 14.4188 13.535C14.6626 13.7787 14.6626 14.175 14.4188 14.4187C13.2388 15.5987 11.6701 16.25 10.0001 16.25Z" fill="#6D4C41"/>
<path d="M7.5 8.75H5C4.655 8.75 4.375 8.47 4.375 8.125C4.375 7.78 4.655 7.5 5 7.5H7.5C7.845 7.5 8.125 7.78 8.125 8.125C8.125 8.47 7.845 8.75 7.5 8.75Z" fill="#6D4C41"/>
<path d="M13.75 8.75C14.4404 8.75 15 8.19036 15 7.5C15 6.80964 14.4404 6.25 13.75 6.25C13.0596 6.25 12.5 6.80964 12.5 7.5C12.5 8.19036 13.0596 8.75 13.75 8.75Z" fill="#6D4C41"/>
</svg>
